<?xml version="1.0" encoding="utf-8"?>
<!-- Generator: Adobe Illustrator 16.0.0, SVG Export Plug-In . SVG Version: 6.00 Build 0)  -->
<!DOCTYPE svg PUBLIC "-//W3C//DTD SVG 1.1//EN" "http://www.w3.org/Graphics/SVG/1.1/DTD/svg11.dtd">
<svg version="1.1" id="Calque_1" xmlns="http://www.w3.org/2000/svg" xmlns:xlink="http://www.w3.org/1999/xlink" x="0px" y="0px"
	 width="100px" height="100px" viewBox="0 0 100 100" enable-background="new 0 0 100 100" xml:space="preserve">
<g>
	<path fill-rule="evenodd" clip-rule="evenodd" fill="#204C24" d="M49.701,99.604c-2.411-0.648-4.822-1.284-7.226-1.944
		c-8.223-2.258-16.441-4.528-24.663-6.784c-1.092-0.301-2.107-0.574-1.951-2.095c0.15-1.456,1.255-1.457,2.249-1.64
		c2.455-0.457,4.92-0.861,7.371-1.342c0.352-0.068,0.915-0.425,0.926-0.669c0.107-2.34,1.982-2.683,3.61-3.147
		c1.027-0.292,1.524-0.668,1.719-1.777c0.542-3.101,1.273-6.166,1.868-9.258c0.216-1.133,0.635-1.755,1.905-1.992
		c7.163-1.332,14.384-1.577,21.63-1.298c3.53,0.137,7.049,0.545,10.576,0.762c0.926,0.057,1.294,0.365,1.475,1.303
		c0.67,3.464,1.488,6.9,2.16,10.363c0.187,0.967,0.597,1.332,1.538,1.555c1.31,0.308,3.104,0.503,3.726,1.41
		c2.076,3.026,5.33,1.945,7.996,2.809c0.306,0.099,0.645,0.096,0.965,0.145c0.801,0.123,1.908,0.161,1.715,1.229
		c-0.122,0.673-0.918,1.527-1.592,1.744c-4.809,1.55-9.664,2.958-14.506,4.409c-6.298,1.889-12.593,3.783-18.897,5.653
		C51.47,99.284,50.608,99.41,49.701,99.604z"/>
	<path fill-rule="evenodd" clip-rule="evenodd" fill="#204C24" d="M64.931,49.365c-6.811-0.925-13.309-1.351-19.833-0.625
		c-1.833,0.204-3.664,0.483-5.472,0.845c-1.197,0.24-1.498-0.14-1.268-1.259c0.953-4.624,1.855-9.257,2.863-13.868
		c0.11-0.503,0.717-1.15,1.207-1.271c1.783-0.442,3.618-0.971,5.428-0.952c4.066,0.039,8.13,0.349,12.188,0.651
		c0.553,0.042,1.428,0.584,1.532,1.039C62.749,38.98,63.801,44.065,64.931,49.365z"/>
	<path fill-rule="evenodd" clip-rule="evenodd" fill="#204C24" d="M58.014,16.757c-4.487,0-8.736,0-13.114,0
		c0.569-2.834,1.208-6.049,1.861-9.262c0.271-1.328,0.567-2.652,0.865-3.975c0.478-2.116,1.765-3.137,3.925-3.125
		c1.936,0.011,3.344,1.157,3.77,3.164c0.802,3.765,1.564,7.538,2.34,11.309C57.788,15.491,57.896,16.119,58.014,16.757z"/>
</g>
</svg>
