<?xml version="1.0" encoding="utf-8"?>
<!-- Generator: Adobe Illustrator 16.0.0, SVG Export Plug-In . SVG Version: 6.00 Build 0)  -->
<!DOCTYPE svg PUBLIC "-//W3C//DTD SVG 1.1//EN" "http://www.w3.org/Graphics/SVG/1.1/DTD/svg11.dtd">
<svg version="1.1" id="Calque_1" xmlns="http://www.w3.org/2000/svg" xmlns:xlink="http://www.w3.org/1999/xlink" x="0px" y="0px"
	 width="100px" height="100px" viewBox="0 0 100 100" enable-background="new 0 0 100 100" xml:space="preserve">
<g>
	<path fill-rule="evenodd" clip-rule="evenodd" fill="#204C24" d="M1.473,44.655c0.349-0.288,0.568-0.537,0.842-0.685
		c6.219-3.367,12.44-6.728,18.667-10.079c5.146-2.768,10.291-5.537,15.45-8.278c4.288-2.278,8.602-4.507,12.891-6.781
		c0.635-0.336,1.134-0.309,1.775,0.041c5.716,3.107,11.447,6.188,17.189,9.25c5.154,2.75,10.329,5.458,15.489,8.199
		c4.818,2.56,9.63,5.137,14.438,7.718c0.186,0.1,0.426,0.339,0.414,0.497c-0.012,0.161-0.284,0.335-0.475,0.444
		c-2.409,1.366-4.812,2.743-7.244,4.064c-0.642,0.348-0.928,0.765-0.921,1.489c0.021,2.453-0.041,4.907,0.038,7.356
		c0.016,0.509,0.413,1.075,0.777,1.487c1.372,1.551,1.041,3.288-0.852,4.168c-1.058,0.492-2.074,0.231-2.847-0.732
		c-0.684-0.85-0.853-2.236-0.065-2.93c1.077-0.946,1.031-2.065,1.015-3.271c-0.021-1.877-0.005-3.754-0.005-5.847
		c-0.651,0.325-1.16,0.53-1.621,0.816c-2.114,1.306-4.228,2.616-6.308,3.973c-0.245,0.159-0.424,0.606-0.427,0.924
		c-0.032,2.346-0.044,4.692,0.011,7.037c0.019,0.759-0.23,1.249-0.813,1.701c-1.69,1.308-3.696,1.867-5.704,2.311
		c-3.415,0.752-6.854,1.314-10.361,1.597c-5.521,0.442-11.037,0.845-16.571,0.631c-3.928-0.152-7.873-0.342-11.76-0.877
		c-3.481-0.481-6.895-1.448-10.333-2.227c-0.499-0.113-0.987-0.33-1.441-0.572c-1.319-0.703-2.283-1.454-1.993-3.335
		c0.305-1.979,0.101-4.043,0.032-6.066c-0.013-0.395-0.333-0.937-0.674-1.139c-4.931-2.926-9.889-5.803-14.841-8.691
		C4.046,46.147,2.841,45.45,1.473,44.655z M50.211,60.264c-0.003-0.079-0.006-0.158-0.009-0.238
		c-3.681,0.19-7.367,0.321-11.044,0.591c-3.343,0.244-6.685,0.563-10.007,1c-1.42,0.187-2.81,0.698-4.167,1.189
		c-0.397,0.143-0.843,0.699-0.88,1.103c-0.027,0.288,0.542,0.828,0.929,0.926c2.582,0.641,5.164,1.341,7.789,1.731
		c2.584,0.386,5.218,0.546,7.833,0.601c5.784,0.122,11.574,0.252,17.355,0.112c3.665-0.088,7.331-0.569,10.973-1.047
		c2.108-0.276,4.183-0.854,6.248-1.394c0.438-0.114,0.77-0.642,1.149-0.979c-0.343-0.37-0.674-0.748-1.03-1.105
		c-0.092-0.092-0.252-0.13-0.389-0.162c-1.955-0.479-3.89-1.137-5.873-1.383c-3.576-0.446-7.18-0.728-10.779-0.917
		C55.616,60.151,52.911,60.264,50.211,60.264z M21.467,50.108c0.353-0.254,0.621-0.452,0.895-0.644
		c0.859-0.603,1.668-1.303,2.59-1.784c2.96-1.544,6.035-2.792,9.374-3.281c2.687-0.394,5.353-1.053,8.05-1.219
		c8.645-0.531,17.298-0.672,25.743,1.72c2.438,0.69,4.796,1.721,7.113,2.769c1.241,0.562,2.313,1.494,3.521,2.298
		c0.248-0.792,0.318-1.534-0.334-2.153c-0.685-0.647-1.342-1.35-2.117-1.872c-3.473-2.341-7.338-3.832-11.416-4.607
		c-3.509-0.667-7.078-1.189-10.643-1.371c-7.915-0.404-15.77,0.121-23.371,2.628c-2.874,0.948-5.605,2.223-7.94,4.198
		C21.989,47.586,20.866,48.353,21.467,50.108z"/>
	<path fill-rule="evenodd" clip-rule="evenodd" fill="#204C24" d="M86.001,77.917c0.319-4.414,0.64-8.825,0.943-13.03
		c1.475-0.095,2.626-0.12,3.766-0.257c0.68-0.081,0.926,0.159,0.926,0.785c0,3.124,0.013,6.249-0.024,9.372
		c-0.004,0.246-0.375,0.713-0.533,0.695c-2.038-0.223-3.286,0.995-4.475,2.35c-0.065,0.074-0.169,0.113-0.255,0.168
		C86.233,77.972,86.117,77.944,86.001,77.917z"/>
</g>
</svg>
