<?xml version="1.0" encoding="utf-8"?>
<!-- Generator: Adobe Illustrator 16.0.0, SVG Export Plug-In . SVG Version: 6.00 Build 0)  -->
<!DOCTYPE svg PUBLIC "-//W3C//DTD SVG 1.1//EN" "http://www.w3.org/Graphics/SVG/1.1/DTD/svg11.dtd">
<svg version="1.1" id="Calque_1" xmlns="http://www.w3.org/2000/svg" xmlns:xlink="http://www.w3.org/1999/xlink" x="0px" y="0px"
	 width="100px" height="100px" viewBox="0 0 100 100" enable-background="new 0 0 100 100" xml:space="preserve">
<g>
	<path fill-rule="evenodd" clip-rule="evenodd" fill="#204C24" d="M45.019,99.811c-0.977,0-1.953,0-2.93,0
		c-2.154-1.482-2.702-3.633-2.69-6.104c0.041-8.301,0.027-16.603,0.015-24.903c-0.001-1.095-0.121-2.19-0.186-3.284
		c-0.269-0.012-0.537-0.022-0.806-0.034c-0.106,0.967-0.298,1.933-0.301,2.898c-0.026,8.303-0.073,16.604,0.014,24.903
		c0.027,2.577-0.504,4.79-2.492,6.524c-0.977,0-1.953,0-2.93,0c-2.533-1.429-2.661-3.908-2.68-6.362
		c-0.049-6.637-0.024-13.273-0.028-19.91c-0.002-2.699-0.001-5.398-0.001-8.409c-3.13,0-5.899,0-8.9,0
		c2.721-10.673,6.479-20.697,8.197-31.308c-1.339,1.059-2.236,2.281-2.976,3.591c-2.11,3.733-4.033,7.579-6.265,11.236
		c-1.975,3.235-3.523,3.429-6.685,1.352c0-1.171,0-2.344,0-3.516c1.589-2.982,3.155-5.977,4.771-8.945
		c2.699-4.957,5.251-10.007,8.243-14.781c1.032-1.647,3.052-3.368,4.864-3.69c3.794-0.675,7.748-0.463,11.639-0.581
		c4.075-0.124,7.117,1.608,9.05,5.208c2.715,5.058,5.538,10.065,8.055,15.221c1.693,3.467,2.668,7.294,4.444,10.709
		c2.703,5.192,4.821,10.973,11.373,12.942c3.997,1.2,6.393,4.233,7.927,8.036c0.869,2.156,1.918,4.238,2.885,6.354
		c0,0.781,0,1.563,0,2.345c-1.296-0.188-2.896,0.024-3.807-0.669c-1.068-0.813-1.562-2.4-2.264-3.675
		c-0.95-1.724-1.858-3.469-2.786-5.205c-0.379,0.099-0.759,0.195-1.14,0.293c0.137,2.132-0.183,4.423,0.494,6.365
		c2.11,6.054,4.576,11.981,6.948,17.941c0.668,1.677,1.653,3.392-0.818,4.354c-2.019,0.786-3.456,0.256-4.403-1.951
		c-1.69-3.934-3.619-7.766-5.511-11.61c-0.48-0.977-1.195-1.837-2.112-3.22c-0.79,1.447-1.47,2.297-1.741,3.263
		c-0.842,2.995-1.431,6.063-2.312,9.045c-0.565,1.912-1.476,3.722-2.231,5.579c-0.977,0-1.952,0-2.93,0
		c-1.563-1.171-1.415-2.667-1.16-4.419c1.43-9.825,2.805-19.658,3.985-29.515c0.22-1.84-0.127-3.98-0.905-5.66
		c-1.786-3.846-3.984-7.502-6.046-11.218c-2.173-3.919-4.326-7.851-6.604-11.709c-0.86-1.458-2.042-2.728-3.077-4.083
		c-0.341,0.19-0.681,0.38-1.021,0.57c3.08,10.366,6.158,20.732,9.359,31.507c-3.337,0-6.121,0-9.131,0c0,1.241,0,2.2,0,3.16
		c0,8.585,0.14,17.176-0.109,25.753C47.25,96.089,45.817,97.94,45.019,99.811z"/>
	<path fill-rule="evenodd" clip-rule="evenodd" fill="#204C24" d="M40.917,0.19c3.913,2.008,6.639,4.83,6.106,9.602
		c-0.444,3.969-3.64,7.009-7.524,7.413c-3.899,0.406-7.753-2.021-8.956-5.638c-1.285-3.865,0.247-8.013,3.753-10.17
		c0.647-0.398,1.289-0.804,1.934-1.206C37.792,0.19,39.354,0.19,40.917,0.19z"/>
	<path fill-rule="evenodd" clip-rule="evenodd" fill="#204C24" d="M81.992,55.958c0.031,3.01-2.328,5.459-5.287,5.49
		c-3.01,0.033-5.378-2.297-5.422-5.331c-0.042-3.011,2.301-5.464,5.271-5.519C79.487,50.543,81.963,52.983,81.992,55.958z"/>
</g>
</svg>
