<?xml version="1.0" encoding="utf-8"?>
<!-- Generator: Adobe Illustrator 16.0.0, SVG Export Plug-In . SVG Version: 6.00 Build 0)  -->
<!DOCTYPE svg PUBLIC "-//W3C//DTD SVG 1.1//EN" "http://www.w3.org/Graphics/SVG/1.1/DTD/svg11.dtd">
<svg version="1.1" id="Calque_1" xmlns="http://www.w3.org/2000/svg" xmlns:xlink="http://www.w3.org/1999/xlink" x="0px" y="0px"
	 width="100px" height="100px" viewBox="0 0 100 100" enable-background="new 0 0 100 100" xml:space="preserve">
<g>
	<path fill-rule="evenodd" clip-rule="evenodd" fill="#204C24" d="M70.389,41.383c-5.119,4.736-6.157,10.433-4.575,16.758
		c1.456,5.818,2.946,11.611,2.449,17.691c-0.56,6.833-2.605,13.088-7.47,18.104c-6.347,6.552-15.86,7.972-25.284,3.938
		c-4.782-2.044-8.806-5.027-11.62-9.474c-3.364-5.311-3.695-10.699-0.659-16.338c2.172-4.033,4.047-8.227,6.101-12.44
		c-1.857-0.805-3.294-1.188-4.439-1.984c-1.259-0.878-2.378-2.042-3.329-3.257c-1.138-1.457-1.896-3.212-3.06-4.643
		c-4.962-6.098-8.2-13.06-10.348-20.546c-0.285-0.99,0.371-2.268,0.653-3.397c0.271-1.084,0.906-2.151,0.889-3.218
		C9.61,16.822,10.87,11.704,14.262,6.768c1.786-2.597,3.698-4.546,6.2-6.167c1.701-1.102,2.939-0.641,3.94,1.062
		c3.223,5.479,3.045,6.126-3.041,7.706c-1.586,0.412-3.37,0.062-5.737,0.062c-3.139,3.678-3.632,8.865-3.232,14.276
		c0.023,0.302,0.294,0.738,0.559,0.845c2.047,0.833,2.457,2.719,3.068,4.515c1.894,5.553,4.34,10.834,8.089,15.398
		c0.492,0.597,1.561,0.792,2.403,1.016c1.441,0.386,2.992,0.458,4.358,1.006c2.1,0.841,4.032,0.856,6.165,0.067
		c1.434-0.528,3.084-0.437,4.6-0.783c0.786-0.181,1.712-0.529,2.199-1.113c3.776-4.545,6.241-9.809,8.154-15.357
		c0.638-1.843,1.005-3.863,3.144-4.747c0.262-0.107,0.502-0.564,0.537-0.883c0.604-5.451-0.207-10.544-3.746-14.963
		c-2.291,1.347-8.066,0.969-9.593-0.915c-2.022-2.493,0.81-4.231,1.529-6.267c0.464-1.31,1.762-2.169,3.115-1.217
		c2.298,1.615,5.568,2.18,6.138,5.813c0.162,1.038,1.513,1.846,2.16,2.859c2.599,4.054,3.18,8.572,3.105,13.285
		c-0.02,1.218,0.73,2.434,1.003,3.677c0.266,1.207,0.813,2.588,0.48,3.654c-2.54,8.081-5.939,15.731-11.957,21.933
		c-0.42,0.433-1.01,0.866-1.134,1.394c-1.012,4.272-4.457,5.444-8.055,6.362c-1.291,0.329-1.914,0.889-2.439,2.216
		c-1.81,4.559-3.755,9.078-5.934,13.474c-2.159,4.356-1.986,7.331,1.214,11.012c4.971,5.717,14.053,8.079,20.225,5.106
		c5.109-2.463,7.243-7.085,8.35-12.306c1.349-6.359-0.116-12.465-1.645-18.602c-2.131-8.544-0.885-16.481,5.435-22.983
		c1.824-1.877,2.599-3.54,2.571-6.201c-0.064-6.23,4.528-11.42,10.643-12.725c6.035-1.29,12.357,1.925,15.04,7.646
		c2.571,5.479,1.041,12.129-3.697,16.056c-4.789,3.972-11.618,4.162-16.629,0.464C71.425,42.133,70.997,41.826,70.389,41.383z
		 M79.885,26.324c-2.835-0.008-5.201,2.326-5.238,5.173c-0.041,2.943,2.392,5.372,5.318,5.315c2.79-0.055,5.19-2.51,5.164-5.283
		C85.101,28.741,82.675,26.333,79.885,26.324z"/>
</g>
</svg>
