<?xml version="1.0" encoding="utf-8"?>
<!-- Generator: Adobe Illustrator 18.0.0, SVG Export Plug-In . SVG Version: 6.00 Build 0)  -->
<!DOCTYPE svg PUBLIC "-//W3C//DTD SVG 1.1//EN" "http://www.w3.org/Graphics/SVG/1.1/DTD/svg11.dtd">
<svg version="1.1" id="Calque_1" xmlns="http://www.w3.org/2000/svg" xmlns:xlink="http://www.w3.org/1999/xlink" x="0px" y="0px"
	 viewBox="0 0 210.4 135" enable-background="new 0 0 210.4 135" xml:space="preserve">
<g>
	<path fill="#224C25" d="M184.9,106c-1.7,3-4.3,3.9-7.8,3.9c-14.4-0.1-28.8-0.1-43.2-0.1c-1.1,0-2.2,0-3.5,0
		c-1.5-8-5.6-13.9-12.9-17.7c4.6-4.2,7.5-9,7.9-15.1c0-0.6,1-1.3,1.6-1.7c4.6-3.4,9.8-5.2,15.6-5.4c7.4-0.3,15-1,22.1,1.9
		c10.9,4.4,16.9,12.8,18.9,24.3c0.3,1.9,0.8,3.8,1.3,5.7C184.9,103.1,184.9,104.6,184.9,106z"/>
	<path fill="#224C25" d="M25.7,102.3c0.8-3.6,1.5-7.3,2.4-10.9C31.3,79.4,42,70.5,54.4,69.9c8.3-0.4,16.8-1.1,24.7,2.7
		c3.1,1.5,5.5,3,5.7,7.1c0.3,5,3.5,8.9,7.3,12.4c-6.6,3.7-10.9,8.9-12.6,16.3c-0.1,0.6-1.4,1.4-2.2,1.4c-15.2,0.1-30.4,0-45.6,0.1
		c-2.9,0-4.4-1.9-5.9-3.8C25.7,104.8,25.7,103.5,25.7,102.3z"/>
	<path fill="#224C25" d="M61.4,18.4c11-0.1,18.7,6.3,20.9,17.5c0.8,4,0.8,8.2,1.4,12.3c0.6,4.2,1.2,8.4,2.2,12.4
		c0.6,2.4,0.1,3.7-2.3,3.1c-6.9-1.9-13.5-0.9-20.4,0.7c-3.2,0.8-7.1-0.7-10.5-1.8c-2-0.6-3.6-0.8-5.6-0.3c-2.6,0.7-5.3,1-7.9,1.4
		c-2,0.3-2.8-0.8-2-2.6c2.3-5,2.1-10.2,2.5-15.5c0.2-4.2,0.8-8.5,2-12.5C44.3,23.5,51.3,18.5,61.4,18.4z"/>
	<path fill="#224C25" d="M170.3,32.6c0,4.1,0.4,8.3-0.1,12.4c-1.3,11.4-10.8,19.6-22.1,19.3c-11.4-0.3-20.4-9.1-21.2-20.7
		c0-0.3,0-0.6-0.1-0.9c-0.6-11,1.1-17.6,15.2-20.8c6.9-1.6,13.6-3.7,20.4-5.5c5.4-1.5,8.1,0.6,8.1,6.3c0,3.3,0,6.6,0,9.9
		C170.5,32.6,170.4,32.6,170.3,32.6z"/>
	<path fill="#224C25" d="M104.7,119.1c-5.3,0-10.6,0-15.8,0c-4.2,0-5.7-1.9-5-6.1c2.3-14,10.6-19.7,25.6-17.9
		c10.5,1.3,16.3,9.2,16.7,19.8c0.1,2.7-1.6,4.1-4.7,4.2C115.9,119.1,110.3,119.1,104.7,119.1z"/>
	<path fill="#224C25" d="M104.9,52.9c1.9,4.9,5.5,7.6,9.2,10.3c6.6,4.9,8.3,13.3,4.2,20.4c-3.8,6.6-12.2,9.4-19.4,6.4
		c-7.1-3-11.2-10.9-9-18.3c0.8-2.6,2.2-5.3,4.2-7.1C97.9,61.1,102.9,58.6,104.9,52.9z"/>
</g>
</svg>
