<?xml version="1.0" encoding="utf-8"?>
<!-- Generator: Adobe Illustrator 18.0.0, SVG Export Plug-In . SVG Version: 6.00 Build 0)  -->
<!DOCTYPE svg PUBLIC "-//W3C//DTD SVG 1.1//EN" "http://www.w3.org/Graphics/SVG/1.1/DTD/svg11.dtd">
<svg version="1.1" id="Calque_1" xmlns="http://www.w3.org/2000/svg" xmlns:xlink="http://www.w3.org/1999/xlink" x="0px" y="0px"
	 viewBox="0 0 210.4 176.9" enable-background="new 0 0 210.4 176.9" xml:space="preserve">
<g>
	<path fill="#224C25" d="M16.3,144c0-29.2,0-58.4,0-87.5c1.9-7.8,5.7-14.3,13.4-17.4c4-1.6,8.4-2,12.9-3c0-0.6,0.1-1.5,0.1-2.4
		c0.1-4.4,0.5-4.8,4.7-4.8c2,0,3.9,0,5.9,0c7.1,0,7.1,0,7.8,7.1c0,0.2,0.2,0.4,0.6,0.9c3,0,6.2,0.1,9.4-0.1c0.7,0,1.6-1.3,1.9-2.1
		c0.3-1.3,0.1-2.8,0.1-4.1c0.4-9.2,6.3-16,15.5-16.5c11.4-0.5,22.9-0.5,34.3,0.1c8,0.4,13.8,7.3,14.4,15.3c0.2,2.4,0.2,4.8,0.4,7.1
		c4.1,0,7.9,0,11.9,0c0-1.3,0.1-2.4,0-3.4c-0.4-3.4,1.3-4.6,4.5-4.4c2.2,0.1,4.4,0,6.6,0c6.8,0,6.8,0,7.2,6.9c0,0.3,0.3,0.6,0.1,0.3
		c4.6,1,8.9,1.5,12.8,3c7.7,3.1,11.5,9.6,13.4,17.4c0,29.2,0,58.4,0,87.5c-0.2,0.4-0.5,0.8-0.6,1.2c-3.5,11.9-11.3,18-23.6,18
		c-43.2,0.1-86.3,0.1-129.5-0.1c-4.3,0-8.9-1.4-12.9-3.3C21.1,156.8,18.2,150.6,16.3,144z M146.4,100c0-22.7-18.3-41.1-41-41.2
		c-22.7-0.1-41.3,18.4-41.3,41.3c0,22.7,18.3,41.1,41,41.2C127.9,141.3,146.4,122.8,146.4,100z M127.8,36.6c0-1.8,0-3.4,0-5
		c-0.1-5.2-3-8.3-8.2-8.3c-9.6-0.1-19.2-0.1-28.8,0c-4.2,0-7.3,2.4-7.8,6c-0.3,2.3-0.1,4.8-0.1,7.4C97.9,36.6,112.6,36.6,127.8,36.6
		z"/>
	<path fill="#224C25" d="M117.7,112.6c0,5-0.1,9.5,0,13.9c0.1,3.1-0.8,4.4-4.1,4.3c-5.7-0.2-11.3-0.2-17,0c-3.1,0.1-4.1-1.1-4-4.1
		c0.1-4.6,0-9.2,0-14.2c-4.9,0-9.5-0.1-14.1,0c-3.2,0.1-4.4-1.2-4.3-4.3c0.1-5.7,0.1-11.3,0-17c0-2.8,1.1-4,3.9-3.9
		c4.7,0.1,9.4,0,14.5,0c0-5.1,0.1-9.9,0-14.6c-0.1-2.8,1.1-4,3.9-3.9c5.8,0.1,11.6,0.1,17.4,0c2.8,0,4,1.1,3.9,3.9
		c-0.1,4.6,0,9.2,0,14.5c4.6,0,8.9,0,13.2,0c4.8,0,5.2,0.4,5.2,5.1c0,5.1,0,10.2,0,15.3c0,4.5-0.5,4.9-5.1,4.9
		C126.8,112.7,122.5,112.6,117.7,112.6z"/>
</g>
</svg>
