<?xml version="1.0" encoding="utf-8"?>
<!-- Generator: Adobe Illustrator 18.0.0, SVG Export Plug-In . SVG Version: 6.00 Build 0)  -->
<!DOCTYPE svg PUBLIC "-//W3C//DTD SVG 1.1//EN" "http://www.w3.org/Graphics/SVG/1.1/DTD/svg11.dtd">
<svg version="1.1" id="Calque_1" xmlns="http://www.w3.org/2000/svg" xmlns:xlink="http://www.w3.org/1999/xlink" x="0px" y="0px"
	 viewBox="0 0 210.4 219" enable-background="new 0 0 210.4 219" xml:space="preserve">
<g>
	<path fill="#224C25" d="M136.8,219c-1.7,0-3.4,0-5.1,0c-1.8-2.6-4.4-4.9-5.3-7.7c-4.3-14-8.1-28.1-12.1-42.2
		c-0.5-1.6-1-3.2-1.5-4.6c-5.3,0-10.2,0-15.3,0c-4.5,15.8-8.7,31.4-13.4,46.9c-0.9,2.8-3.6,5.1-5.4,7.6c-1.7,0-3.4,0-5.1,0
		c-8.4-3.3-8.6-3.7-6-12.9c3-10.7,6.1-21.4,9.1-32.1c0.9-3.1,1.7-6.2,2.7-9.8c-2.1,0-3.6,0-5.2,0c-20,0-39.9,0-59.9,0
		C3.9,164.3,0,160.3,0,150C0,110.7,0,71.3,0,32c0-10,4-14.1,14-14.1c25.1,0,50.2,0,75.3,0c1.5,0,3.1,0,4.7,0
		c-1.8-10-0.6-12.5,7.8-17.9c2.3,0,4.6,0,6.8,0c7.3,3.8,10.6,9.4,7.6,17.9c2.2,0,3.7,0,5.3,0c25.4,0,50.7,0,76.1,0
		c8.2,0,12.7,4.3,12.8,12.2c0.1,40.6,0.1,81.2,0,121.8c0,8-4.5,12.3-12.6,12.3c-20.5,0-41,0-61.5,0c-1.5,0-3.1,0-5,0
		c0.4,1.8,0.8,3.1,1.1,4.5c3.8,13.6,7.7,27.1,11.5,40.7c1.4,5.1,0,7.4-5.1,8.7C138,218.3,137.4,218.7,136.8,219z M188.7,142.1
		c0-34.9,0-69.6,0-104.2c-55.9,0-111.5,0-167.1,0c0,34.9,0,69.5,0,104.2C77.4,142.1,133,142.1,188.7,142.1z"/>
	<path fill="#224C25" d="M156,73.8c-0.9-5.8,3.1-10,8.2-9.7c4.6,0.2,8.7,4.6,8.3,9.1c-0.4,5-5.1,8.5-10.2,8.1
		c-1.7-0.1-3.8,0.4-5.1,1.5c-5.9,5-11.6,10.1-17.1,15.5c-1.2,1.2-2.1,3.2-2.3,4.9c-0.5,4.6-4.1,8.4-8.6,8.6
		c-4.2,0.1-8.1-3.4-8.9-7.7c-0.3-1.6-1.1-3.5-2.3-4.5c-5.5-5-11.3-9.6-16.8-14.5c-1.8-1.6-3.5-2.9-6-1.6c-0.6,0.3-1.6,0.4-2.1,0.1
		c-4.1-2.7-6.6,0.4-9.2,2.5c-10.7,8.5-21.4,17-32,25.7c-1.2,1-2,2.9-2.2,4.5c-0.5,5.1-4.5,9.1-9.2,8.7c-4.7-0.4-8.7-5.3-8-9.9
		c0.7-5,5.7-8.5,10.7-7c2.4,0.7,3.9,0.2,5.7-1.2c11.3-8.9,22.7-17.6,34-26.6c1.3-1,2.3-3.1,2.4-4.8c0.4-5.1,4.1-9.2,8.8-9.1
		c4.8,0.1,8.3,4.1,8.5,9.4c0.1,1.5,0.8,3.3,1.8,4.2c5.4,4.9,11,9.4,16.5,14.2c1.6,1.4,3,2.3,5.2,1c1-0.6,2.8-1,3.7-0.5
		c3.5,2,5.5-0.1,7.7-2.2c5.1-4.8,10.4-9.3,15.5-14.1C154.4,77,155.1,75.3,156,73.8z"/>
</g>
</svg>
