<?xml version="1.0" encoding="utf-8"?>
<!-- Generator: Adobe Illustrator 18.0.0, SVG Export Plug-In . SVG Version: 6.00 Build 0)  -->
<!DOCTYPE svg PUBLIC "-//W3C//DTD SVG 1.1//EN" "http://www.w3.org/Graphics/SVG/1.1/DTD/svg11.dtd">
<svg version="1.1" id="Calque_1" xmlns="http://www.w3.org/2000/svg" xmlns:xlink="http://www.w3.org/1999/xlink" x="0px" y="0px"
	 viewBox="0 0 210.4 219" enable-background="new 0 0 210.4 219" xml:space="preserve">
<g>
	<path fill="#224C25" d="M78.4,219c-6.8-2.3-13.2-5.1-17.8-11.2c-3.9-5.2-5.9-10.9-6-17.3c-0.1-3.5,1.6-6,5.2-6.6
		c3.5-0.6,6.2,1.4,7,5c0.3,1.2,0.4,2.5,0.6,3.8c1.4,7.9,8.2,13.6,16,13.4c7.9-0.2,14.3-6.2,15.3-14.2c0.2-1.4,0.2-2.8,0.2-4.2
		c0-19.3-0.1-38.6,0.1-57.9c0-3.2-1.1-4.9-3.9-6.1c-11.6-5.1-23.4-5.5-34.9-0.1c-4.1,1.9-7.4,5.6-11,8.4c-13.7-16-30.8-14.2-49-7.1
		c1-11.6,4.5-22.4,10.4-32.3c14.1-24.2,35.4-39,61.7-46.5c7.5-2.1,15.3-3,23.1-4.1c2.5-0.4,3.6-1,3.7-3.8c0.1-5.1,2.6-7.9,6.4-7.8
		c3.7,0.1,5.9,2.8,6.2,7.6c0.1,1,0.1,1.9,0.2,3.3c34.4,3,63.5,16,84.2,45.1c8.3,11.7,14,27.9,14,38.5c-17.8-7-34.7-8.6-49.3,7.9
		c-3.8-7.2-10.7-10.5-18.6-12.1c-8.4-1.7-16.7-1-24.7,2.1c-4.1,1.6-6,3.8-5.9,8.7c0.4,18.4,0.1,36.9,0.2,55.3
		c0.1,16.9-7,26.7-23,31.6c-0.4,0.1-0.7,0.4-1,0.6C84.6,219,81.5,219,78.4,219z"/>
	<path fill="#224C25" d="M96.1,1.1c-0.3,4.9-0.2,9.9-1.1,14.7c-0.5,2.6-2.4,5.5-4.5,6.9c-2.6,1.8-5.7,0.7-7.8-2
		c-2.1-2.8-2.1-6,0.2-8.5C85.3,9.6,88.3,7.4,91,5c1.4-1.3,2.8-2.6,4.3-3.9C95.5,1.1,95.8,1.1,96.1,1.1z"/>
	<path fill="#224C25" d="M128.8,1.1c-0.5,5.7-0.7,11.5-1.7,17.2c-0.6,3.8-4,5.6-7.5,5c-3.6-0.6-5.6-3.1-5.5-6.4
		c0.1-2.1,1.4-4.6,2.9-6.1c3.4-3.5,7.2-6.5,10.9-9.7C128.2,1.1,128.5,1.1,128.8,1.1z"/>
	<path fill="#224C25" d="M68.6,12.5C68,17.7,67.6,22.9,66.8,28c-0.5,3.3-2.6,5.8-5.9,5.4c-2.3-0.3-5-1.7-6.5-3.5
		c-2-2.6-1.2-5.8,1.3-8c3.8-3.5,7.8-6.7,11.7-10.1C67.8,12,68.2,12.3,68.6,12.5z"/>
	<path fill="#224C25" d="M155.1,11.8c-0.5,5-0.9,10.1-1.5,15.1c-0.5,3.4-2.5,6.1-6,5.9c-2.3-0.2-5.1-1.6-6.5-3.4
		c-2.1-2.7-1.2-6,1.4-8.4c3.7-3.4,7.6-6.5,11.4-9.8C154.3,11.3,154.7,11.5,155.1,11.8z"/>
</g>
</svg>
