<?xml version="1.0" encoding="utf-8"?>
<!-- Generator: Adobe Illustrator 16.0.0, SVG Export Plug-In . SVG Version: 6.00 Build 0)  -->
<!DOCTYPE svg PUBLIC "-//W3C//DTD SVG 1.1//EN" "http://www.w3.org/Graphics/SVG/1.1/DTD/svg11.dtd">
<svg version="1.1" id="Calque_1" xmlns="http://www.w3.org/2000/svg" xmlns:xlink="http://www.w3.org/1999/xlink" x="0px" y="0px"
	 width="46.688px" height="33.662px" viewBox="0 0 46.688 33.662" enable-background="new 0 0 46.688 33.662" xml:space="preserve">
<g>
	<path fill-rule="evenodd" clip-rule="evenodd" fill="#204C24" d="M0,14.775c0.414-1.43,0.681-2.923,1.266-4.279
		c2.63-6.09,7.275-9.571,13.877-10.379c3.537-0.433,6.838,0.358,9.959,2.018c0.271,0.145,0.558,0.263,0.976,0.457
		c0.046-0.929,0.084-1.717,0.126-2.566c2.494,0,4.911,0,7.493,0c0,4.281,0,8.559,0,13.014c4.391,0,8.622,0,12.919,0
		c0,2.517,0,4.854,0,7.362c-3.926,0-7.866,0-12.073,0c1.14,2.509,2.784,4.089,5.083,4.994c2.289,0.898,4.611,0.597,7.056-0.068
		c0,2.51,0.032,4.85-0.043,7.185c-0.01,0.285-0.575,0.749-0.927,0.795c-3.992,0.518-7.846,0.146-11.378-1.998
		c-0.131-0.078-0.278-0.131-0.414-0.193c-0.075,0.103-0.158,0.162-0.161,0.227c-0.11,2.176-0.108,2.174-2.322,2.171
		c-1.698-0.002-3.396,0-5.215,0c-0.049-0.827-0.092-1.57-0.128-2.178c-2.126,0.691-4.176,1.584-6.319,2.016
		c-9.013,1.818-18.069-4.572-19.52-13.641C0.211,19.439,0.087,19.18,0,18.915C0,17.535,0,16.155,0,14.775z M25.222,13.042
		c-1.439-3.879-5.958-6.166-10.188-5.343c-4.301,0.836-7.559,4.891-7.449,9.27c0.111,4.433,3.611,8.334,8,8.921
		c4.098,0.548,8.497-1.888,9.567-5.445c-4.073,0-8.097,0-12.136,0c0-2.549,0-4.917,0-7.402
		C17.097,13.042,21.092,13.042,25.222,13.042z"/>
</g>
</svg>
